<svg width="243" height="32" viewBox="0 0 243 32" fill="none" xmlns="http://www.w3.org/2000/svg">
<path d="M14.68 31.28C12.0933 31.28 9.70667 30.68 7.52 29.48C5.36 28.2533 3.64 26.56 2.36 24.4C1.10667 22.2133 0.48 19.76 0.48 17.04C0.48 14.32 1.10667 11.88 2.36 9.72C3.64 7.56 5.36 5.88 7.52 4.68C9.70667 3.45333 12.0933 2.84 14.68 2.84C17.2933 2.84 19.68 3.45333 21.84 4.68C24.0267 5.88 25.7467 7.56 27 9.72C28.2533 11.88 28.88 14.32 28.88 17.04C28.88 19.76 28.2533 22.2133 27 24.4C25.7467 26.56 24.0267 28.2533 21.84 29.48C19.68 30.68 17.2933 31.28 14.68 31.28ZM14.68 27.32C16.52 27.32 18.16 26.9067 19.6 26.08C21.04 25.2267 22.16 24.0267 22.96 22.48C23.7867 20.9067 24.2 19.0933 24.2 17.04C24.2 14.9867 23.7867 13.1867 22.96 11.64C22.16 10.0933 21.04 8.90667 19.6 8.08C18.16 7.25333 16.52 6.84 14.68 6.84C12.84 6.84 11.2 7.25333 9.76 8.08C8.32 8.90667 7.18667 10.0933 6.36 11.64C5.56 13.1867 5.16 14.9867 5.16 17.04C5.16 19.0933 5.56 20.9067 6.36 22.48C7.18667 24.0267 8.32 25.2267 9.76 26.08C11.2 26.9067 12.84 27.32 14.68 27.32ZM44.4872 8.6C46.2205 8.6 47.7672 8.96 49.1272 9.68C50.5139 10.4 51.5939 11.4667 52.3672 12.88C53.1405 14.2933 53.5272 16 53.5272 18V31H49.0072V18.68C49.0072 16.7067 48.5139 15.2 47.5272 14.16C46.5405 13.0933 45.1939 12.56 43.4872 12.56C41.7805 12.56 40.4205 13.0933 39.4072 14.16C38.4205 15.2 37.9272 16.7067 37.9272 18.68V31H33.3672V8.96H37.9272V11.48C38.6739 10.5733 39.6205 9.86667 40.7672 9.36C41.9405 8.85333 43.1805 8.6 44.4872 8.6ZM63.9038 1.4V31H59.3438V1.4H63.9038ZM72.2106 6.04C71.384 6.04 70.6906 5.76 70.1306 5.2C69.5706 4.64 69.2906 3.94667 69.2906 3.12C69.2906 2.29333 69.5706 1.6 70.1306 1.04C70.6906 0.479999 71.384 0.199998 72.2106 0.199998C73.0106 0.199998 73.6906 0.479999 74.2506 1.04C74.8106 1.6 75.0906 2.29333 75.0906 3.12C75.0906 3.94667 74.8106 4.64 74.2506 5.2C73.6906 5.76 73.0106 6.04 72.2106 6.04ZM74.4506 8.96V31H69.8906V8.96H74.4506ZM91.5575 8.6C93.2908 8.6 94.8375 8.96 96.1975 9.68C97.5842 10.4 98.6642 11.4667 99.4375 12.88C100.211 14.2933 100.598 16 100.598 18V31H96.0775V18.68C96.0775 16.7067 95.5842 15.2 94.5975 14.16C93.6108 13.0933 92.2642 12.56 90.5575 12.56C88.8508 12.56 87.4908 13.0933 86.4775 14.16C85.4908 15.2 84.9975 16.7067 84.9975 18.68V31H80.4375V8.96H84.9975V11.48C85.7442 10.5733 86.6908 9.86667 87.8375 9.36C89.0108 8.85333 90.2508 8.6 91.5575 8.6ZM126.614 19.44C126.614 20.2667 126.561 21.0133 126.454 21.68H109.614C109.747 23.44 110.401 24.8533 111.574 25.92C112.747 26.9867 114.187 27.52 115.894 27.52C118.347 27.52 120.081 26.4933 121.094 24.44H126.014C125.347 26.4667 124.134 28.1333 122.374 29.44C120.641 30.72 118.481 31.36 115.894 31.36C113.787 31.36 111.894 30.8933 110.214 29.96C108.561 29 107.254 27.6667 106.294 25.96C105.361 24.2267 104.894 22.2267 104.894 19.96C104.894 17.6933 105.347 15.7067 106.254 14C107.187 12.2667 108.481 10.9333 110.134 10C111.814 9.06667 113.734 8.6 115.894 8.6C117.974 8.6 119.827 9.05333 121.454 9.96C123.081 10.8667 124.347 12.1467 125.254 13.8C126.161 15.4267 126.614 17.3067 126.614 19.44ZM121.854 18C121.827 16.32 121.227 14.9733 120.054 13.96C118.881 12.9467 117.427 12.44 115.694 12.44C114.121 12.44 112.774 12.9467 111.654 13.96C110.534 14.9467 109.867 16.2933 109.654 18H121.854ZM139.972 19.96C139.972 17.6933 140.426 15.7067 141.332 14C142.266 12.2667 143.546 10.9333 145.172 10C146.799 9.06667 148.666 8.6 150.772 8.6C153.439 8.6 155.639 9.24 157.372 10.52C159.132 11.7733 160.319 13.5733 160.932 15.92H156.012C155.612 14.8267 154.972 13.9733 154.092 13.36C153.212 12.7467 152.106 12.44 150.772 12.44C148.906 12.44 147.412 13.1067 146.292 14.44C145.199 15.7467 144.652 17.5867 144.652 19.96C144.652 22.3333 145.199 24.1867 146.292 25.52C147.412 26.8533 148.906 27.52 150.772 27.52C153.412 27.52 155.159 26.36 156.012 24.04H160.932C160.292 26.28 159.092 28.0667 157.332 29.4C155.572 30.7067 153.386 31.36 150.772 31.36C148.666 31.36 146.799 30.8933 145.172 29.96C143.546 29 142.266 27.6667 141.332 25.96C140.426 24.2267 139.972 22.2267 139.972 19.96ZM170.037 1.4V31H165.477V1.4H170.037ZM178.343 6.04C177.517 6.04 176.823 5.76 176.263 5.2C175.703 4.64 175.423 3.94667 175.423 3.12C175.423 2.29333 175.703 1.6 176.263 1.04C176.823 0.479999 177.517 0.199998 178.343 0.199998C179.143 0.199998 179.823 0.479999 180.383 1.04C180.943 1.6 181.223 2.29333 181.223 3.12C181.223 3.94667 180.943 4.64 180.383 5.2C179.823 5.76 179.143 6.04 178.343 6.04ZM180.583 8.96V31H176.023V8.96H180.583ZM197.69 8.6C199.424 8.6 200.97 8.96 202.33 9.68C203.717 10.4 204.797 11.4667 205.57 12.88C206.344 14.2933 206.73 16 206.73 18V31H202.21V18.68C202.21 16.7067 201.717 15.2 200.73 14.16C199.744 13.0933 198.397 12.56 196.69 12.56C194.984 12.56 193.624 13.0933 192.61 14.16C191.624 15.2 191.13 16.7067 191.13 18.68V31H186.57V8.96H191.13V11.48C191.877 10.5733 192.824 9.86667 193.97 9.36C195.144 8.85333 196.384 8.6 197.69 8.6ZM214.867 6.04C214.04 6.04 213.347 5.76 212.787 5.2C212.227 4.64 211.947 3.94667 211.947 3.12C211.947 2.29333 212.227 1.6 212.787 1.04C213.347 0.479999 214.04 0.199998 214.867 0.199998C215.667 0.199998 216.347 0.479999 216.907 1.04C217.467 1.6 217.747 2.29333 217.747 3.12C217.747 3.94667 217.467 4.64 216.907 5.2C216.347 5.76 215.667 6.04 214.867 6.04ZM217.107 8.96V31H212.547V8.96H217.107ZM221.574 19.96C221.574 17.6933 222.027 15.7067 222.934 14C223.867 12.2667 225.147 10.9333 226.774 10C228.4 9.06667 230.267 8.6 232.374 8.6C235.04 8.6 237.24 9.24 238.974 10.52C240.734 11.7733 241.92 13.5733 242.534 15.92H237.614C237.214 14.8267 236.574 13.9733 235.694 13.36C234.814 12.7467 233.707 12.44 232.374 12.44C230.507 12.44 229.014 13.1067 227.894 14.44C226.8 15.7467 226.254 17.5867 226.254 19.96C226.254 22.3333 226.8 24.1867 227.894 25.52C229.014 26.8533 230.507 27.52 232.374 27.52C235.014 27.52 236.76 26.36 237.614 24.04H242.534C241.894 26.28 240.694 28.0667 238.934 29.4C237.174 30.7067 234.987 31.36 232.374 31.36C230.267 31.36 228.4 30.8933 226.774 29.96C225.147 29 223.867 27.6667 222.934 25.96C222.027 24.2267 221.574 22.2267 221.574 19.96Z" fill="white"/>
</svg>
